<?xml version="1.0" encoding="UTF-8" standalone="no"?>
<!-- Creator: CorelDRAW -->

<svg
   xml:space="preserve"
   width="240px"
   height="335px"
   version="1.1"
   style="shape-rendering:geometricPrecision; text-rendering:geometricPrecision; image-rendering:optimizeQuality; fill-rule:evenodd; clip-rule:evenodd"
   viewBox="0 0 27.88 38.98"
   id="svg14"
   sodipodi:docname="dg.svg"
   xmlns:inkscape="http://www.inkscape.org/namespaces/inkscape"
   xmlns:sodipodi="http://sodipodi.sourceforge.net/DTD/sodipodi-0.dtd"
   xmlns="http://www.w3.org/2000/svg"
   xmlns:svg="http://www.w3.org/2000/svg"><sodipodi:namedview
   id="namedview16"
   pagecolor="#ffffff"
   bordercolor="#000000"
   borderopacity="0.25"
   inkscape:showpageshadow="2"
   inkscape:pageopacity="0.0"
   inkscape:pagecheckerboard="0"
   inkscape:deskcolor="#d1d1d1" />
 <defs
   id="defs4">
  <style
   type="text/css"
   id="style2">
   <![CDATA[
    .str0 {stroke:#E9E9E9;stroke-width:0.67;stroke-linecap:round;stroke-linejoin:round;stroke-miterlimit:22.9256}
    .str2 {stroke:#E9E9E9;stroke-width:0.67;stroke-linecap:round;stroke-linejoin:round;stroke-miterlimit:22.9256}
    .str1 {stroke:#E9E9E9;stroke-width:0.67;stroke-linecap:round;stroke-linejoin:round;stroke-miterlimit:22.9256}
    .fil0 {fill:#E9E9E9}
    .fil1 {fill:#A6A6A6}
    .fil2 {fill:#202020}
   ]]>
  </style>
 </defs>
 <g
   id="Слой_x0020_1"
   inkscape:label="Слой 1"
   inkscape:groupmode="layer">
  <metadata
   id="CorelCorpID_0Corel-Layer" />
  <path
   class="fil0 str0"
   d="M 21.53,33.01 5.94,31.39 10.88,29.27 26.52,30.88 Z M 17.29,21.88 13.15,21.52 16.99,19.9 19.23,19.25 Z M 0.35,2.46 c 0,-0.01 1.06,-0.17 6.22,0.59 5.38,1.08 8.22,3.96 11.19,7.03 2.98,3.07 4.54,8.7 4.81,12.72 v 5.09 l 4.97,-2.11 V 21.01 C 27.12,15.9 26.23,13.18 23.58,9.17 20.94,5.15 16.14,1.76 11.56,1.05 11.46,1.03 5.34,0.32 5.31,0.33 Z"
   id="path7" />
  <path
   class="fil1 str1"
   d="m 5.94,31.39 4.94,-2.12 V 10.73 L 9.92,6.83 5.89,8.52 Z m 15.62,7.26 -0.03,-5.64 4.99,-2.13 0.02,5.66 z"
   id="path9" />
  <path
   class="fil2 str2"
   d="M 22.57,27.89 V 22.8 C 22.3,18.78 20.74,13.15 17.76,10.08 14.79,7.01 11.95,4.13 6.57,3.05 1.41,2.29 0.35,2.45 0.35,2.46 L 0.33,36.5 21.56,38.65 21.53,33.01 5.94,31.39 5.89,8.52 c 2.14,0.82 5.06,1.52 7.85,4.72 2.78,3.2 3.5,7.31 3.55,8.64 l -4.14,-0.36 -0.01,5.35 z"
   id="path11" />
 </g>
</svg>
